<svg width="22" height="22" viewBox="0 0 22 22" fill="none" xmlns="http://www.w3.org/2000/svg">
<path d="M8.27262 21C8.77469 21 9.18171 20.5736 9.18171 20.0476C9.18171 19.5216 8.77469 19.0952 8.27262 19.0952C7.77054 19.0952 7.36353 19.5216 7.36353 20.0476C7.36353 20.5736 7.77054 21 8.27262 21Z" stroke="black" stroke-width="2" stroke-linecap="round" stroke-linejoin="round"/>
<path d="M18.2726 21C18.7747 21 19.1817 20.5736 19.1817 20.0476C19.1817 19.5216 18.7747 19.0952 18.2726 19.0952C17.7705 19.0952 17.3635 19.5216 17.3635 20.0476C17.3635 20.5736 17.7705 21 18.2726 21Z" stroke="black" stroke-width="2" stroke-linecap="round" stroke-linejoin="round"/>
<path d="M1 1H4.63636L7.07273 13.7524C7.15586 14.1909 7.38355 14.5847 7.71595 14.865C8.04835 15.1454 8.46427 15.2943 8.89091 15.2857H17.7273C18.1539 15.2943 18.5698 15.1454 18.9022 14.865C19.2346 14.5847 19.4623 14.1909 19.5455 13.7524L21 5.7619H5.54545" stroke="black" stroke-width="2" stroke-linecap="round" stroke-linejoin="round"/>
</svg>
