<svg width="22" height="22" viewBox="0 0 22 22" fill="none" xmlns="http://www.w3.org/2000/svg">
<path d="M5.26669 14.9725C7.61337 14.9725 9.53338 13.0471 9.53338 10.7113C9.53338 9.49082 8.92538 8.33347 7.70937 7.35498C6.49336 6.37649 5.57602 4.92453 5.26669 3.39893C4.95735 4.92453 4.05068 6.38701 2.82401 7.35498C1.59734 8.32295 1 9.50134 1 10.7113C1 13.0471 2.92001 14.9725 5.26669 14.9725Z" stroke="black" stroke-width="2" stroke-linecap="round" stroke-linejoin="round"/>
<path d="M11.1972 4.76666C11.9308 3.61049 12.4509 2.33521 12.7332 1C13.2665 3.63035 14.8666 6.15549 16.9999 7.83892C19.1332 9.52234 20.1999 11.5214 20.1999 13.6257C20.206 15.0801 19.7742 16.5035 18.9592 17.7155C18.1441 18.9275 16.9826 19.8735 15.6219 20.4336C14.2612 20.9937 12.7625 21.1426 11.3158 20.8616C9.86912 20.5805 8.53962 19.8821 7.49585 18.8548" stroke="black" stroke-width="2" stroke-linecap="round" stroke-linejoin="round"/>
</svg>
