<svg width="20" height="22" viewBox="0 0 20 22" fill="none" xmlns="http://www.w3.org/2000/svg">
<path d="M17 21H3C1.9 21 1 20.1 1 19V5C1 3.9 1.9 3 3 3H17C18.1 3 19 3.9 19 5V19C19 20.1 18.1 21 17 21Z" stroke="black" stroke-linecap="round" stroke-linejoin="round"/>
<path d="M14 1V3" stroke="black" stroke-linecap="round" stroke-linejoin="round"/>
<path d="M6 1V3" stroke="black" stroke-linecap="round" stroke-linejoin="round"/>
<path d="M10 13C11.6569 13 13 11.6569 13 10C13 8.34315 11.6569 7 10 7C8.34315 7 7 8.34315 7 10C7 11.6569 8.34315 13 10 13Z" stroke="black" stroke-linecap="round" stroke-linejoin="round"/>
<path d="M15 17.5C13.6 16.5 11.9 16 10 16C8.1 16 6.4 16.6 5 17.5" stroke="black" stroke-linecap="round" stroke-linejoin="round"/>
</svg>
