<svg width="22" height="22" viewBox="0 0 22 22" fill="none" xmlns="http://www.w3.org/2000/svg">
<path d="M11 21C16.5228 21 21 16.5228 21 11C21 5.47715 16.5228 1 11 1C5.47715 1 1 5.47715 1 11C1 16.5228 5.47715 21 11 21Z" stroke="black" stroke-width="2" stroke-linecap="round" stroke-linejoin="round"/>
<path d="M8.08984 7.99993C8.32495 7.3316 8.789 6.76804 9.3998 6.40906C10.0106 6.05009 10.7287 5.91887 11.427 6.03864C12.1253 6.15841 12.7587 6.52145 13.2149 7.06346C13.6712 7.60546 13.9209 8.29145 13.9198 8.99993C13.9198 10.9999 10.9198 11.9999 10.9198 11.9999" stroke="black" stroke-width="2" stroke-linecap="round" stroke-linejoin="round"/>
<path d="M11 16H11.01" stroke="black" stroke-width="2" stroke-linecap="round" stroke-linejoin="round"/>
</svg>
