<svg width="28" height="22" viewBox="0 0 28 22" fill="none" xmlns="http://www.w3.org/2000/svg">
<path d="M24.4726 18.6017C25.4949 17.8784 26.266 16.8417 26.6744 15.6412C27.0829 14.4407 27.1076 13.1386 26.7451 11.9227C26.3825 10.7069 25.6514 9.64038 24.6574 8.87706C23.6633 8.11374 22.4577 7.69315 21.2146 7.67602H18.8688C18.4749 6.31734 17.7833 5.0683 16.8466 4.02376C15.9099 2.97922 14.7527 2.16665 13.4628 1.64775C12.173 1.12885 10.7845 0.917268 9.40276 1.02908C8.021 1.14088 6.68233 1.57314 5.48841 2.29301C4.29449 3.01289 3.27671 4.00146 2.51237 5.18364C1.74804 6.36582 1.25724 7.71054 1.07724 9.11566C0.897252 10.5208 1.0328 11.9494 1.4736 13.2929C1.9144 14.6365 2.64886 15.8596 3.6212 16.8696" stroke="black" stroke-width="2" stroke-linecap="round" stroke-linejoin="round"/>
<path d="M19.2598 15.6704V18.3352" stroke="black" stroke-width="2" stroke-linecap="round" stroke-linejoin="round"/>
<path d="M8.83398 15.6704V18.3352" stroke="black" stroke-width="2" stroke-linecap="round" stroke-linejoin="round"/>
<path d="M14.0469 18.3352V21" stroke="black" stroke-width="2" stroke-linecap="round" stroke-linejoin="round"/>
</svg>
