<svg width="0" height="0" class="hidden">
  <symbol fill="none" xmlns="http://www.w3.org/2000/svg" viewBox="0 0 7 12" id="arrow-right">
    <path d="M1 11L6 6L1 1" stroke="#5F7A42" stroke-width="2" stroke-linecap="round" stroke-linejoin="round"></path>
  </symbol>
  <symbol fill="none" xmlns="http://www.w3.org/2000/svg" viewBox="0 0 22 21" id="blocks">
    <path fill="currentColor" d="M9.49567 3.50005H4.23071V8.94449H9.49567V3.50005Z"></path>
    <path fill="currentColor" d="M17.7691 3.50006H12.5042V8.94451H17.7691V3.50006Z"></path>
    <path fill="currentColor" d="M17.7691 12.0557H12.5042V17.5001H17.7691V12.0557Z"></path>
    <path fill="currentColor" d="M9.49567 12.0557H4.23071V17.5001H9.49567V12.0557Z"></path>
    <rect  x="1" y="1" width="20"  height="19" rx="1" stroke-width="2"></rect>
  </symbol>
  <symbol fill="none" xmlns="http://www.w3.org/2000/svg" viewBox="0 0 22 22" id="cart">
    <path d="M8.27262 21C8.77469 21 9.18171 20.5736 9.18171 20.0476C9.18171 19.5216 8.77469 19.0952 8.27262 19.0952C7.77054 19.0952 7.36353 19.5216 7.36353 20.0476C7.36353 20.5736 7.77054 21 8.27262 21Z" stroke-width="2" stroke-linecap="round" stroke-linejoin="round"></path>
    <path d="M18.2726 21C18.7747 21 19.1817 20.5736 19.1817 20.0476C19.1817 19.5216 18.7747 19.0952 18.2726 19.0952C17.7705 19.0952 17.3635 19.5216 17.3635 20.0476C17.3635 20.5736 17.7705 21 18.2726 21Z" stroke-width="2" stroke-linecap="round" stroke-linejoin="round"></path>
    <path d="M1 1H4.63636L7.07273 13.7524C7.15586 14.1909 7.38355 14.5847 7.71595 14.865C8.04835 15.1454 8.46427 15.2943 8.89091 15.2857H17.7273C18.1539 15.2943 18.5698 15.1454 18.9022 14.865C19.2346 14.5847 19.4623 14.1909 19.5455 13.7524L21 5.7619H5.54545" stroke-width="2" stroke-linecap="round" stroke-linejoin="round"></path>
  </symbol>
  <symbol fill="none" xmlns="http://www.w3.org/2000/svg" viewBox="0 0 13 22" id="facebook">
    <path d="M12 1H9C7.67392 1 6.40215 1.52678 5.46447 2.46447C4.52678 3.40215 4 4.67392 4 6V9H1V13H4V21H8V13H11L12 9H8V6C8 5.73478 8.10536 5.48043 8.29289 5.29289C8.48043 5.10536 8.73478 5 9 5H12V1Z" stroke="black" stroke-width="2" stroke-linecap="round" stroke-linejoin="round"></path>
  </symbol>
  <symbol fill="none" xmlns="http://www.w3.org/2000/svg" viewBox="0 0 22 22" id="insta">
    <path d="M16 1H6C3.23858 1 1 3.23858 1 6V16C1 18.7614 3.23858 21 6 21H16C18.7614 21 21 18.7614 21 16V6C21 3.23858 18.7614 1 16 1Z" stroke="black" stroke-width="2" stroke-linecap="round" stroke-linejoin="round"></path>
    <path d="M15 10.3698C15.1234 11.2021 14.9812 12.052 14.5937 12.7988C14.2062 13.5456 13.5931 14.1512 12.8416 14.5295C12.0901 14.9077 11.2384 15.0394 10.4077 14.9057C9.57708 14.7721 8.80971 14.3799 8.21479 13.785C7.61987 13.1901 7.22768 12.4227 7.09402 11.592C6.96035 10.7614 7.09202 9.90971 7.47028 9.15819C7.84854 8.40667 8.45414 7.79355 9.20094 7.40605C9.94773 7.01856 10.7977 6.8764 11.63 6.99981C12.4789 7.1257 13.2648 7.52128 13.8716 8.12812C14.4785 8.73496 14.8741 9.52089 15 10.3698Z" stroke="black" stroke-width="2" stroke-linecap="round" stroke-linejoin="round"></path>
    <path d="M16.5 5.5H16.51" stroke="black" stroke-width="2" stroke-linecap="round" stroke-linejoin="round"></path>
  </symbol>
  <symbol fill="none" xmlns="http://www.w3.org/2000/svg" viewBox="0 0 22 21" id="lines">
    <path d="M4.23071 10.3409H17.7692"  stroke-width="2" stroke-linecap="round" stroke-linejoin="round"></path>
    <path d="M4.23071 5.17046H17.7692"  stroke-width="2" stroke-linecap="round" stroke-linejoin="round"></path>
    <path d="M4.23071 15.5114H17.7692"  stroke-width="2" stroke-linecap="round" stroke-linejoin="round"></path>
    <rect x="1" y="1" width="20" height="18.6818" rx="1"  stroke-width="2"></rect>
  </symbol>
  <symbol fill="none" xmlns="http://www.w3.org/2000/svg" viewBox="0 0 20 22" id="log_in">
    <path d="M19 21V18.7778C19 17.599 18.5259 16.4686 17.682 15.6351C16.8381 14.8016 15.6935 14.3333 14.5 14.3333H5.5C4.30653 14.3333 3.16193 14.8016 2.31802 15.6351C1.47411 16.4686 1 17.599 1 18.7778V21" stroke-width="2" stroke-linecap="round" stroke-linejoin="round"></path>
    <path d="M10 9.88889C12.4853 9.88889 14.5 7.89904 14.5 5.44444C14.5 2.98985 12.4853 1 10 1C7.51472 1 5.5 2.98985 5.5 5.44444C5.5 7.89904 7.51472 9.88889 10 9.88889Z"  stroke-width="2" stroke-linecap="round" stroke-linejoin="round"></path>
  </symbol>
  <symbol fill="none" xmlns="http://www.w3.org/2000/svg" viewBox="0 0 20 20" id="log_out">
    <path d="M7 19H3C2.46957 19 1.96086 18.7893 1.58579 18.4142C1.21071 18.0391 1 17.5304 1 17V3C1 2.46957 1.21071 1.96086 1.58579 1.58579C1.96086 1.21071 2.46957 1 3 1H7" stroke="black" stroke-linecap="round" stroke-linejoin="round"></path>
    <path d="M14 15L19 10L14 5" stroke="black" stroke-linecap="round" stroke-linejoin="round"></path>
    <path d="M19 10H7" stroke="black" stroke-linecap="round" stroke-linejoin="round"></path>
  </symbol>
  <symbol fill="none" xmlns="http://www.w3.org/2000/svg" viewBox="0 0 22 18" id="mail">
    <path d="M3 1H19C20.1 1 21 1.86086 21 2.91302V14.3912C21 15.4433 20.1 16.3042 19 16.3042H3C1.9 16.3042 1 15.4433 1 14.3912V2.91302C1 1.86086 1.9 1 3 1Z" stroke="black" stroke-width="2" stroke-linecap="round" stroke-linejoin="round"></path>
    <path d="M21 2.91309L11 9.6084L1 2.91309" stroke="black" stroke-width="2" stroke-linecap="round" stroke-linejoin="round"></path>
  </symbol>
  <symbol fill="none" xmlns="http://www.w3.org/2000/svg" viewBox="0 0 22 22" id="moisture">
    <path d="M5.26669 14.9725C7.61337 14.9725 9.53338 13.0471 9.53338 10.7113C9.53338 9.49082 8.92538 8.33347 7.70937 7.35498C6.49336 6.37649 5.57602 4.92453 5.26669 3.39893C4.95735 4.92453 4.05068 6.38701 2.82401 7.35498C1.59734 8.32295 1 9.50134 1 10.7113C1 13.0471 2.92001 14.9725 5.26669 14.9725Z" stroke="black" stroke-width="2" stroke-linecap="round" stroke-linejoin="round"></path>
    <path d="M11.1972 4.76666C11.9308 3.61049 12.4509 2.33521 12.7332 1C13.2665 3.63035 14.8666 6.15549 16.9999 7.83892C19.1332 9.52234 20.1999 11.5214 20.1999 13.6257C20.206 15.0801 19.7742 16.5035 18.9592 17.7155C18.1441 18.9275 16.9826 19.8735 15.6219 20.4336C14.2612 20.9937 12.7625 21.1426 11.3158 20.8616C9.86912 20.5805 8.53962 19.8821 7.49585 18.8548" stroke="black" stroke-width="2" stroke-linecap="round" stroke-linejoin="round"></path>
  </symbol>
  <symbol fill="none" xmlns="http://www.w3.org/2000/svg" viewBox="0 0 20 22" id="orders">
    <path d="M4 1L1 5V19C1 19.5304 1.21071 20.0391 1.58579 20.4142C1.96086 20.7893 2.46957 21 3 21H17C17.5304 21 18.0391 20.7893 18.4142 20.4142C18.7893 20.0391 19 19.5304 19 19V5L16 1H4Z" stroke="black" stroke-linecap="round" stroke-linejoin="round"></path>
    <path d="M1 5H19" stroke="black" stroke-linecap="round" stroke-linejoin="round"></path>
    <path d="M14 9C14 10.0609 13.5786 11.0783 12.8284 11.8284C12.0783 12.5786 11.0609 13 10 13C8.93913 13 7.92172 12.5786 7.17157 11.8284C6.42143 11.0783 6 10.0609 6 9" stroke="black" stroke-linecap="round" stroke-linejoin="round"></path>
  </symbol>
  <symbol fill="none" xmlns="http://www.w3.org/2000/svg" viewBox="0 0 20 22" id="personal_info">
    <path d="M17 21H3C1.9 21 1 20.1 1 19V5C1 3.9 1.9 3 3 3H17C18.1 3 19 3.9 19 5V19C19 20.1 18.1 21 17 21Z" stroke="black" stroke-linecap="round" stroke-linejoin="round"></path>
    <path d="M14 1V3" stroke="black" stroke-linecap="round" stroke-linejoin="round"></path>
    <path d="M6 1V3" stroke="black" stroke-linecap="round" stroke-linejoin="round"></path>
    <path d="M10 13C11.6569 13 13 11.6569 13 10C13 8.34315 11.6569 7 10 7C8.34315 7 7 8.34315 7 10C7 11.6569 8.34315 13 10 13Z" stroke="black" stroke-linecap="round" stroke-linejoin="round"></path>
    <path d="M15 17.5C13.6 16.5 11.9 16 10 16C8.1 16 6.4 16.6 5 17.5" stroke="black" stroke-linecap="round" stroke-linejoin="round"></path>
  </symbol>
  <symbol fill="none" xmlns="http://www.w3.org/2000/svg" viewBox="0 0 22 22" id="question_mark">
    <path d="M11 21C16.5228 21 21 16.5228 21 11C21 5.47715 16.5228 1 11 1C5.47715 1 1 5.47715 1 11C1 16.5228 5.47715 21 11 21Z" stroke="black" stroke-width="2" stroke-linecap="round" stroke-linejoin="round"></path>
    <path d="M8.08984 7.99993C8.32495 7.3316 8.789 6.76804 9.3998 6.40906C10.0106 6.05009 10.7287 5.91887 11.427 6.03864C12.1253 6.15841 12.7587 6.52145 13.2149 7.06346C13.6712 7.60546 13.9209 8.29145 13.9198 8.99993C13.9198 10.9999 10.9198 11.9999 10.9198 11.9999" stroke="black" stroke-width="2" stroke-linecap="round" stroke-linejoin="round"></path>
    <path d="M11 16H11.01" stroke="black" stroke-width="2" stroke-linecap="round" stroke-linejoin="round"></path>
  </symbol>
  <symbol fill="none" xmlns="http://www.w3.org/2000/svg" viewBox="0 0 28 22" id="rain">
    <path d="M24.4726 18.6017C25.4949 17.8784 26.266 16.8417 26.6744 15.6412C27.0829 14.4407 27.1076 13.1386 26.7451 11.9227C26.3825 10.7069 25.6514 9.64038 24.6574 8.87706C23.6633 8.11374 22.4577 7.69315 21.2146 7.67602H18.8688C18.4749 6.31734 17.7833 5.0683 16.8466 4.02376C15.9099 2.97922 14.7527 2.16665 13.4628 1.64775C12.173 1.12885 10.7845 0.917268 9.40276 1.02908C8.021 1.14088 6.68233 1.57314 5.48841 2.29301C4.29449 3.01289 3.27671 4.00146 2.51237 5.18364C1.74804 6.36582 1.25724 7.71054 1.07724 9.11566C0.897252 10.5208 1.0328 11.9494 1.4736 13.2929C1.9144 14.6365 2.64886 15.8596 3.6212 16.8696" stroke="black" stroke-width="2" stroke-linecap="round" stroke-linejoin="round"></path>
    <path d="M19.2598 15.6704V18.3352" stroke="black" stroke-width="2" stroke-linecap="round" stroke-linejoin="round"></path>
    <path d="M8.83398 15.6704V18.3352" stroke="black" stroke-width="2" stroke-linecap="round" stroke-linejoin="round"></path>
    <path d="M14.0469 18.3352V21" stroke="black" stroke-width="2" stroke-linecap="round" stroke-linejoin="round"></path>
  </symbol>
  <symbol fill="none" xmlns="http://www.w3.org/2000/svg" viewBox="0 0 20 20" id="requests">
    <path d="M19 13C19 13.5304 18.7893 14.0391 18.4142 14.4142C18.0391 14.7893 17.5304 15 17 15H5L1 19V3C1 2.46957 1.21071 1.96086 1.58579 1.58579C1.96086 1.21071 2.46957 1 3 1H17C17.5304 1 18.0391 1.21071 18.4142 1.58579C18.7893 1.96086 19 2.46957 19 3V13Z" stroke="black" stroke-linecap="round" stroke-linejoin="round"></path>
  </symbol>
  <symbol fill="none" xmlns="http://www.w3.org/2000/svg" viewBox="0 0 22 22" id="search">
    <path d="M9.88889 18.7778C14.7981 18.7778 18.7778 14.7981 18.7778 9.88889C18.7778 4.97969 14.7981 1 9.88889 1C4.97969 1 1 4.97969 1 9.88889C1 14.7981 4.97969 18.7778 9.88889 18.7778Z"  stroke-width="2" stroke-linecap="round" stroke-linejoin="round"></path>
    <path d="M21.0001 21L16.1667 16.1667"  stroke-width="2" stroke-linecap="round" stroke-linejoin="round"></path>
  </symbol>
  <symbol fill="none" xmlns="http://www.w3.org/2000/svg" viewBox="0 0 22 22" id="smile">
    <path d="M11 21C16.5228 21 21 16.5228 21 11C21 5.47715 16.5228 1 11 1C5.47715 1 1 5.47715 1 11C1 16.5228 5.47715 21 11 21Z" stroke="black" stroke-width="2" stroke-linecap="round" stroke-linejoin="round"></path>
    <path d="M7 13C7 13 8.5 15 11 15C13.5 15 15 13 15 13" stroke="black" stroke-width="2" stroke-linecap="round" stroke-linejoin="round"></path>
    <path d="M8 8H8.01" stroke="black" stroke-width="2" stroke-linecap="round" stroke-linejoin="round"></path>
    <path d="M14 8H14.01" stroke="black" stroke-width="2" stroke-linecap="round" stroke-linejoin="round"></path>
  </symbol>
  <symbol fill="none" xmlns="http://www.w3.org/2000/svg" viewBox="0 0 22 21" id="star_empty">
    <path d="M11 1L14.09 7.25342L21 8.26236L16 13.1272L17.18 20L11 16.7534L4.82 20L6 13.1272L1 8.26236L7.91 7.25342L11 1Z" stroke="black" stroke-linecap="round" stroke-linejoin="round"></path>
  </symbol>
  <symbol fill="none" xmlns="http://www.w3.org/2000/svg" viewBox="0 0 23 22" id="star_full">
    <path d="M11.5 1L14.7445 7.58254L22 8.64458L16.75 13.7655L17.989 21L11.5 17.5825L5.011 21L6.25 13.7655L1 8.64458L8.2555 7.58254L11.5 1Z" fill="#EEE744" stroke="black" stroke-linecap="round" stroke-linejoin="round"></path>
  </symbol>
  <symbol fill="none" xmlns="http://www.w3.org/2000/svg" viewBox="0 0 23 22" id="star_half">
    <path d="M11.4762 17.5825V1L8.23905 7.58255L1 8.64459L6.23809 13.7655L5.0019 21L11.4762 17.5825Z" fill="#EEE744"></path>
    <path d="M11.5 1L14.7445 7.58255L22 8.64459L16.75 13.7655L17.989 21L11.5 17.5825L5.011 21L6.25 13.7655L1 8.64459L8.2555 7.58255L11.5 1Z" stroke="black" stroke-linecap="round" stroke-linejoin="round"></path>
  </symbol>
  <symbol fill="none" xmlns="http://www.w3.org/2000/svg" viewBox="0 0 12 7" id="tick">
    <path d="M1 1L6 6L11 1" stroke="black" stroke-width="2" stroke-linecap="round" stroke-linejoin="round"></path>
  </symbol>
  <symbol fill="none" xmlns="http://www.w3.org/2000/svg" viewBox="0 0 20 23" id="trash_can">
    <path d="M1 5.13637H3H19" stroke="black" stroke-width="2" stroke-linecap="round" stroke-linejoin="round"></path>
    <path d="M6 5.13636V3.06818C6 2.51967 6.21071 1.99362 6.58579 1.60576C6.96086 1.2179 7.46957 1 8 1H12C12.5304 1 13.0391 1.2179 13.4142 1.60576C13.7893 1.99362 14 2.51967 14 3.06818V5.13636M17 5.13636V19.6136C17 20.1621 16.7893 20.6882 16.4142 21.0761C16.0391 21.4639 15.5304 21.6818 15 21.6818H5C4.46957 21.6818 3.96086 21.4639 3.58579 21.0761C3.21071 20.6882 3 20.1621 3 19.6136V5.13636H17Z" stroke="black" stroke-width="2" stroke-linecap="round" stroke-linejoin="round"></path>
    <path d="M8 10.3068V16.5114" stroke="black" stroke-width="2" stroke-linecap="round" stroke-linejoin="round"></path>
    <path d="M12 10.3068V16.5114" stroke="black" stroke-width="2" stroke-linecap="round" stroke-linejoin="round"></path>
  </symbol>
  <symbol fill="none" xmlns="http://www.w3.org/2000/svg" viewBox="0 0 24 20" id="twitter">
    <path d="M23 1.01006C22.0424 1.68553 20.9821 2.20217 19.86 2.54006C19.2577 1.84757 18.4573 1.35675 17.567 1.13398C16.6767 0.911216 15.7395 0.967251 14.8821 1.29451C14.0247 1.62177 13.2884 2.20446 12.773 2.96377C12.2575 3.72309 11.9877 4.62239 12 5.54006V6.54006C10.2426 6.58562 8.50127 6.19587 6.93101 5.4055C5.36074 4.61513 4.01032 3.44869 3 2.01006C3 2.01006 -1 11.0101 8 15.0101C5.94053 16.408 3.48716 17.109 1 17.0101C10 22.0101 21 17.0101 21 5.51006C20.9991 5.23151 20.9723 4.95365 20.92 4.68006C21.9406 3.67355 22.6608 2.40277 23 1.01006V1.01006Z" stroke="black" stroke-width="2" stroke-linecap="round" stroke-linejoin="round"></path>
  </symbol>
  <symbol fill="none" xmlns="http://www.w3.org/2000/svg" viewBox="0 0 27 20" id="utube">
    <path d="M25.4767 3.81759C25.3417 3.26503 25.0668 2.75875 24.6797 2.34989C24.2926 1.94103 23.8071 1.64407 23.2722 1.489C21.3178 1 13.5 1 13.5 1C13.5 1 5.68222 1 3.72778 1.53558C3.19286 1.69064 2.70735 1.9876 2.32029 2.39646C1.93323 2.80532 1.65833 3.3116 1.52335 3.86417C1.16566 5.89651 0.990691 7.95819 1.00065 10.0233C0.987899 12.1039 1.16288 14.1813 1.52335 16.229C1.67216 16.7644 1.95322 17.2514 2.33938 17.643C2.72554 18.0346 3.20374 18.3175 3.72778 18.4644C5.68222 19 13.5 19 13.5 19C13.5 19 21.3178 19 23.2722 18.4644C23.8071 18.3094 24.2926 18.0124 24.6797 17.6035C25.0668 17.1947 25.3417 16.6884 25.4767 16.1358C25.8316 14.1188 26.0065 12.0728 25.9994 10.0233C26.0121 7.94264 25.8371 5.86524 25.4767 3.81759V3.81759Z" stroke="black" stroke-width="2" stroke-linecap="round" stroke-linejoin="round"></path>
    <path d="M10.9431 13.8306L17.4769 10.0233L10.9431 6.21606V13.8306Z" stroke="black" stroke-width="2" stroke-linecap="round" stroke-linejoin="round"></path>
  </symbol>
  <symbol fill="none" xmlns="http://www.w3.org/2000/svg" viewBox="0 0 22 22" id="cloud">
    <path d="M10.9995 1V2.99993" stroke="black" stroke-width="2" stroke-linecap="round" stroke-linejoin="round"></path>
    <path d="M4.21973 4.21982L5.63967 5.63977" stroke="black" stroke-width="2" stroke-linecap="round" stroke-linejoin="round"></path>
    <path d="M18.9993 10.9996H20.9992" stroke="black" stroke-width="2" stroke-linecap="round" stroke-linejoin="round"></path>
    <path d="M14.9695 11.4997C15.0687 10.7096 14.9299 9.90798 14.5708 9.19733C14.2117 8.48668 13.6487 7.89937 12.9539 7.5106C12.259 7.12182 11.4639 6.94927 10.6704 7.01505C9.87693 7.08082 9.12112 7.38191 8.49976 7.87979" stroke="black" stroke-width="2" stroke-linecap="round" stroke-linejoin="round"></path>
    <path d="M12.6296 20.9992C13.5014 21.018 14.3453 20.691 14.9767 20.0895C15.6082 19.488 15.9759 18.6611 15.9994 17.7893C15.9891 17.3559 15.8934 16.9289 15.7179 16.5325C15.5424 16.1361 15.2905 15.7781 14.9766 15.4791C14.6628 15.1801 14.293 14.9458 13.8886 14.7898C13.4842 14.6337 13.0529 14.5588 12.6196 14.5694H11.2796C10.9278 13.5181 10.2511 12.6058 9.34699 11.9641C8.44292 11.3224 7.35834 10.9847 6.2498 10.9996C4.89088 10.9674 3.57472 11.4758 2.5904 12.4133C1.60607 13.3507 1.03406 14.6405 1 15.9994C1 18.7593 3.34991 20.9992 6.2498 20.9992H12.6296V20.9992Z" stroke="black" stroke-width="2" stroke-linecap="round" stroke-linejoin="round"></path>
    <path d="M16.3594 5.63977L17.7793 4.21982" stroke="black" stroke-width="2" stroke-linecap="round" stroke-linejoin="round"></path>
  </symbol>
  <symbol width="101" height="56" viewBox="0 0 101 56" xmlns="http://www.w3.org/2000/svg" id="logo">
    <path d="M1.562 33.2667H6.746C8.49533 33.2667 9.80733 33.736 10.682 34.6747C11.5567 35.6134 11.994 36.9894 11.994 38.8027V41.0107C11.994 42.824 11.5567 44.2 10.682 45.1387C9.80733 46.0774 8.49533 46.5467 6.746 46.5467H5.082V55.6667H1.562V33.2667ZM6.746 43.3467C7.322 43.3467 7.74867 43.1867 8.026 42.8667C8.32467 42.5467 8.474 42.0027 8.474 41.2347V38.5787C8.474 37.8107 8.32467 37.2667 8.026 36.9467C7.74867 36.6267 7.322 36.4667 6.746 36.4667H5.082V43.3467H6.746ZM18.9938 55.9867C17.2658 55.9867 15.9431 55.496 15.0258 54.5147C14.1084 53.5334 13.6497 52.1467 13.6497 50.3547V38.5787C13.6497 36.7867 14.1084 35.4 15.0258 34.4187C15.9431 33.4374 17.2658 32.9467 18.9938 32.9467C20.7218 32.9467 22.0444 33.4374 22.9618 34.4187C23.8791 35.4 24.3378 36.7867 24.3378 38.5787V50.3547C24.3378 52.1467 23.8791 53.5334 22.9618 54.5147C22.0444 55.496 20.7218 55.9867 18.9938 55.9867ZM18.9938 52.7867C20.2098 52.7867 20.8177 52.0507 20.8177 50.5787V38.3547C20.8177 36.8827 20.2098 36.1467 18.9938 36.1467C17.7778 36.1467 17.1698 36.8827 17.1698 38.3547V50.5787C17.1698 52.0507 17.7778 52.7867 18.9938 52.7867ZM25.8863 33.2667H29.2783L30.8463 50.4827H30.9103L32.5743 33.2667H36.4143L38.0783 50.4827H38.1423L39.7103 33.2667H42.7503L40.4783 55.6667H36.0943L34.4943 40.5627H34.4303L32.8303 55.6667H28.1583L25.8863 33.2667ZM44.5308 33.2667H54.1308V36.4667H48.0508V42.3867H52.8828V45.5867H48.0508V52.4667H54.1308V55.6667H44.5308V33.2667ZM56.1558 33.2667H61.3718C63.1851 33.2667 64.5078 33.6934 65.3398 34.5467C66.1718 35.3787 66.5878 36.6694 66.5878 38.4187V39.7947C66.5878 42.12 65.8198 43.592 64.2838 44.2107V44.2747C65.1371 44.5307 65.7344 45.0534 66.0758 45.8427C66.4384 46.632 66.6198 47.688 66.6198 49.0107V52.9467C66.6198 53.5867 66.6411 54.1094 66.6838 54.5147C66.7264 54.8987 66.8331 55.2827 67.0038 55.6667H63.4198C63.2918 55.304 63.2064 54.9627 63.1638 54.6427C63.1211 54.3227 63.0998 53.7467 63.0998 52.9147V48.8187C63.0998 47.7947 62.9291 47.08 62.5878 46.6747C62.2678 46.2694 61.7024 46.0667 60.8918 46.0667H59.6758V55.6667H56.1558V33.2667ZM60.9558 42.8667C61.6598 42.8667 62.1824 42.6854 62.5238 42.3227C62.8864 41.96 63.0677 41.352 63.0677 40.4987V38.7707C63.0677 37.96 62.9184 37.3734 62.6198 37.0107C62.3424 36.648 61.8944 36.4667 61.2758 36.4667H59.6758V42.8667H60.9558Z" fill="#5F7A42"/>
    <path d="M1.46304 6.6H10.775V9.8H4.98304V16.04H9.52704V19.24H4.98304V29H1.46304V6.6ZM12.463 6.6H15.983V25.8H21.775V29H12.463V6.6ZM28.426 29.32C26.698 29.32 25.3754 28.8293 24.458 27.848C23.5407 26.8667 23.082 25.48 23.082 23.688V11.912C23.082 10.12 23.5407 8.73333 24.458 7.752C25.3754 6.77067 26.698 6.28 28.426 6.28C30.154 6.28 31.4767 6.77067 32.394 7.752C33.3114 8.73333 33.77 10.12 33.77 11.912V23.688C33.77 25.48 33.3114 26.8667 32.394 27.848C31.4767 28.8293 30.154 29.32 28.426 29.32ZM28.426 26.12C29.642 26.12 30.25 25.384 30.25 23.912V11.688C30.25 10.216 29.642 9.48 28.426 9.48C27.21 9.48 26.602 10.216 26.602 11.688V23.912C26.602 25.384 27.21 26.12 28.426 26.12ZM35.3185 6.6H38.7105L40.2785 23.816H40.3425L42.0065 6.6H45.8465L47.5105 23.816H47.5745L49.1425 6.6H52.1825L49.9105 29H45.5265L43.9265 13.896H43.8625L42.2625 29H37.5905L35.3185 6.6ZM53.963 6.6H63.563V9.8H57.483V15.72H62.315V18.92H57.483V25.8H63.563V29H53.963V6.6ZM65.588 6.6H70.804C72.6174 6.6 73.94 7.02667 74.772 7.88C75.604 8.712 76.02 10.0027 76.02 11.752V13.128C76.02 15.4533 75.252 16.9253 73.716 17.544V17.608C74.5694 17.864 75.1667 18.3867 75.508 19.176C75.8707 19.9653 76.052 21.0213 76.052 22.344V26.28C76.052 26.92 76.0734 27.4427 76.116 27.848C76.1587 28.232 76.2654 28.616 76.436 29H72.852C72.724 28.6373 72.6387 28.296 72.596 27.976C72.5534 27.656 72.532 27.08 72.532 26.248V22.152C72.532 21.128 72.3614 20.4133 72.02 20.008C71.7 19.6027 71.1347 19.4 70.324 19.4H69.108V29H65.588V6.6ZM70.388 16.2C71.092 16.2 71.6147 16.0187 71.956 15.656C72.3187 15.2933 72.5 14.6853 72.5 13.832V12.104C72.5 11.2933 72.3507 10.7067 72.052 10.344C71.7747 9.98133 71.3267 9.8 70.708 9.8H69.108V16.2H70.388Z" fill="#5F7A42"/>
    <path d="M78.8132 55.3334L76.85 47.3334H93.8166L91.8534 55.3334H78.8132Z" stroke="black" stroke-width="1.33333" stroke-linejoin="round"/>
    <rect x="74" y="44.6667" width="22.6667" height="2.66667" stroke="black" stroke-width="1.33333"/>
    <path d="M78.6667 44.6666C76.0394 39.3785 76.6376 29.8113 84.041 29.3554C92.4015 28.8406 92.8162 38.0565 90.6667 44.6666" stroke="black" stroke-width="1.33333"/>
    <path d="M85.3334 29.3411C85.7163 26.1064 88.0881 20.0021 93.2784 20C94.8102 19.9994 96.3552 20.7691 96.9371 22.1859C98.0397 24.8703 97.0806 29.2979 90.99 33.3333" stroke="black" stroke-width="1.33333"/>
    <path d="M88.6666 22C86.691 21.3119 84.1858 20.2344 83.9393 17.7707C83.6916 15.2952 86.182 12.3791 88.462 13.3748C89.6817 13.9075 90.781 15.6722 91.3333 20" stroke="black" stroke-width="1.33333"/>
    <path d="M83.5675 16.6668H82.6666M85.6216 21.3334L84.2522 22.6668M97.9459 22.6666L100 21.9999M95.8918 29.3334L97.9458 31.3334M78.09 34L74.6666 32.6667M77.4054 41.3333L75.3513 42.6666M91.7837 36.6667L93.1531 36M91.7837 41.3333L93.8378 42M89.7297 9.99998L90.4144 9.33331" stroke="black" stroke-width="1.33333" stroke-linecap="round" stroke-linejoin="round"/>
    <circle cx="87.3333" cy="19.3334" r="0.666665" fill="#5F7A42"/>
    <circle cx="91.3333" cy="26" r="0.666665" fill="#5F7A42"/>
    <circle cx="93.6667" cy="23" r="0.333333" fill="#5F7A42"/>
    <circle cx="92.3333" cy="29.6666" r="0.333333" fill="#5F7A42"/>
    <circle cx="89.6667" cy="19" r="0.333333" fill="#5F7A42"/>
    <circle cx="88.3333" cy="15" r="0.333333" fill="#5F7A42"/>
    <circle cx="85.6667" cy="17.6666" r="0.333333" fill="#5F7A42"/>
    <circle cx="88.3333" cy="9.66665" r="0.333333" fill="#5F7A42"/>
    <circle cx="87" cy="11" r="0.333333" fill="#5F7A42"/>
    <circle cx="85.6667" cy="32.3333" r="0.333333" fill="#5F7A42"/>
    <circle cx="84.3333" cy="39" r="0.333333" fill="#5F7A42"/>
    <circle cx="80.3333" cy="35" r="0.333333" fill="#5F7A42"/>
    <circle cx="88.3333" cy="41.6666" r="0.333333" fill="#5F7A42"/>
    <circle cx="88.6667" cy="36.6667" r="0.666665" fill="#5F7A42"/>
    <circle cx="80.6668" cy="40.6667" r="0.666665" fill="#5F7A42"/>
    <path d="M85.596 13.3333C85.0539 11.3728 85.1623 7.56943 87.7643 8.03993C89.9327 8.43202 89.3906 11.5689 88.8485 13.3333" stroke="black" stroke-width="1.33333" stroke-linecap="round" stroke-linejoin="round"/>
  </symbol>
</svg>