<svg width="20" height="23" viewBox="0 0 20 23" fill="none" xmlns="http://www.w3.org/2000/svg">
<path d="M1 5.13637H3H19" stroke="black" stroke-width="2" stroke-linecap="round" stroke-linejoin="round"/>
<path d="M6 5.13636V3.06818C6 2.51967 6.21071 1.99362 6.58579 1.60576C6.96086 1.2179 7.46957 1 8 1H12C12.5304 1 13.0391 1.2179 13.4142 1.60576C13.7893 1.99362 14 2.51967 14 3.06818V5.13636M17 5.13636V19.6136C17 20.1621 16.7893 20.6882 16.4142 21.0761C16.0391 21.4639 15.5304 21.6818 15 21.6818H5C4.46957 21.6818 3.96086 21.4639 3.58579 21.0761C3.21071 20.6882 3 20.1621 3 19.6136V5.13636H17Z" stroke="black" stroke-width="2" stroke-linecap="round" stroke-linejoin="round"/>
<path d="M8 10.3068V16.5114" stroke="black" stroke-width="2" stroke-linecap="round" stroke-linejoin="round"/>
<path d="M12 10.3068V16.5114" stroke="black" stroke-width="2" stroke-linecap="round" stroke-linejoin="round"/>
</svg>
