<svg width="27" height="20" viewBox="0 0 27 20" fill="none" xmlns="http://www.w3.org/2000/svg">
<path d="M25.4767 3.81759C25.3417 3.26503 25.0668 2.75875 24.6797 2.34989C24.2926 1.94103 23.8071 1.64407 23.2722 1.489C21.3178 1 13.5 1 13.5 1C13.5 1 5.68222 1 3.72778 1.53558C3.19286 1.69064 2.70735 1.9876 2.32029 2.39646C1.93323 2.80532 1.65833 3.3116 1.52335 3.86417C1.16566 5.89651 0.990691 7.95819 1.00065 10.0233C0.987899 12.1039 1.16288 14.1813 1.52335 16.229C1.67216 16.7644 1.95322 17.2514 2.33938 17.643C2.72554 18.0346 3.20374 18.3175 3.72778 18.4644C5.68222 19 13.5 19 13.5 19C13.5 19 21.3178 19 23.2722 18.4644C23.8071 18.3094 24.2926 18.0124 24.6797 17.6035C25.0668 17.1947 25.3417 16.6884 25.4767 16.1358C25.8316 14.1188 26.0065 12.0728 25.9994 10.0233C26.0121 7.94264 25.8371 5.86524 25.4767 3.81759V3.81759Z" stroke="black" stroke-width="2" stroke-linecap="round" stroke-linejoin="round"/>
<path d="M10.9431 13.8306L17.4769 10.0233L10.9431 6.21606V13.8306Z" stroke="black" stroke-width="2" stroke-linecap="round" stroke-linejoin="round"/>
</svg>
