<svg width="22" height="22" viewBox="0 0 22 22" fill="none" xmlns="http://www.w3.org/2000/svg">
<path d="M10.9995 1V2.99993" stroke="black" stroke-width="2" stroke-linecap="round" stroke-linejoin="round"/>
<path d="M4.21973 4.21982L5.63967 5.63977" stroke="black" stroke-width="2" stroke-linecap="round" stroke-linejoin="round"/>
<path d="M18.9993 10.9996H20.9992" stroke="black" stroke-width="2" stroke-linecap="round" stroke-linejoin="round"/>
<path d="M14.9695 11.4997C15.0687 10.7096 14.9299 9.90798 14.5708 9.19733C14.2117 8.48668 13.6487 7.89937 12.9539 7.5106C12.259 7.12182 11.4639 6.94927 10.6704 7.01505C9.87693 7.08082 9.12112 7.38191 8.49976 7.87979" stroke="black" stroke-width="2" stroke-linecap="round" stroke-linejoin="round"/>
<path d="M12.6296 20.9992C13.5014 21.018 14.3453 20.691 14.9767 20.0895C15.6082 19.488 15.9759 18.6611 15.9994 17.7893C15.9891 17.3559 15.8934 16.9289 15.7179 16.5325C15.5424 16.1361 15.2905 15.7781 14.9766 15.4791C14.6628 15.1801 14.293 14.9458 13.8886 14.7898C13.4842 14.6337 13.0529 14.5588 12.6196 14.5694H11.2796C10.9278 13.5181 10.2511 12.6058 9.34699 11.9641C8.44292 11.3224 7.35834 10.9847 6.2498 10.9996C4.89088 10.9674 3.57472 11.4758 2.5904 12.4133C1.60607 13.3507 1.03406 14.6405 1 15.9994C1 18.7593 3.34991 20.9992 6.2498 20.9992H12.6296V20.9992Z" stroke="black" stroke-width="2" stroke-linecap="round" stroke-linejoin="round"/>
<path d="M16.3594 5.63977L17.7793 4.21982" stroke="black" stroke-width="2" stroke-linecap="round" stroke-linejoin="round"/>
</svg>
