<svg width="101" height="56" viewBox="0 0 101 56" fill="none" xmlns="http://www.w3.org/2000/svg">
<path d="M1.562 33.2667H6.746C8.49533 33.2667 9.80733 33.736 10.682 34.6747C11.5567 35.6134 11.994 36.9894 11.994 38.8027V41.0107C11.994 42.824 11.5567 44.2 10.682 45.1387C9.80733 46.0774 8.49533 46.5467 6.746 46.5467H5.082V55.6667H1.562V33.2667ZM6.746 43.3467C7.322 43.3467 7.74867 43.1867 8.026 42.8667C8.32467 42.5467 8.474 42.0027 8.474 41.2347V38.5787C8.474 37.8107 8.32467 37.2667 8.026 36.9467C7.74867 36.6267 7.322 36.4667 6.746 36.4667H5.082V43.3467H6.746ZM18.9938 55.9867C17.2658 55.9867 15.9431 55.496 15.0258 54.5147C14.1084 53.5334 13.6497 52.1467 13.6497 50.3547V38.5787C13.6497 36.7867 14.1084 35.4 15.0258 34.4187C15.9431 33.4374 17.2658 32.9467 18.9938 32.9467C20.7218 32.9467 22.0444 33.4374 22.9618 34.4187C23.8791 35.4 24.3378 36.7867 24.3378 38.5787V50.3547C24.3378 52.1467 23.8791 53.5334 22.9618 54.5147C22.0444 55.496 20.7218 55.9867 18.9938 55.9867ZM18.9938 52.7867C20.2098 52.7867 20.8177 52.0507 20.8177 50.5787V38.3547C20.8177 36.8827 20.2098 36.1467 18.9938 36.1467C17.7778 36.1467 17.1698 36.8827 17.1698 38.3547V50.5787C17.1698 52.0507 17.7778 52.7867 18.9938 52.7867ZM25.8863 33.2667H29.2783L30.8463 50.4827H30.9103L32.5743 33.2667H36.4143L38.0783 50.4827H38.1423L39.7103 33.2667H42.7503L40.4783 55.6667H36.0943L34.4943 40.5627H34.4303L32.8303 55.6667H28.1583L25.8863 33.2667ZM44.5308 33.2667H54.1308V36.4667H48.0508V42.3867H52.8828V45.5867H48.0508V52.4667H54.1308V55.6667H44.5308V33.2667ZM56.1558 33.2667H61.3718C63.1851 33.2667 64.5078 33.6934 65.3398 34.5467C66.1718 35.3787 66.5878 36.6694 66.5878 38.4187V39.7947C66.5878 42.12 65.8198 43.592 64.2838 44.2107V44.2747C65.1371 44.5307 65.7344 45.0534 66.0758 45.8427C66.4384 46.632 66.6198 47.688 66.6198 49.0107V52.9467C66.6198 53.5867 66.6411 54.1094 66.6838 54.5147C66.7264 54.8987 66.8331 55.2827 67.0038 55.6667H63.4198C63.2918 55.304 63.2064 54.9627 63.1638 54.6427C63.1211 54.3227 63.0998 53.7467 63.0998 52.9147V48.8187C63.0998 47.7947 62.9291 47.08 62.5878 46.6747C62.2678 46.2694 61.7024 46.0667 60.8918 46.0667H59.6758V55.6667H56.1558V33.2667ZM60.9558 42.8667C61.6598 42.8667 62.1824 42.6854 62.5238 42.3227C62.8864 41.96 63.0677 41.352 63.0677 40.4987V38.7707C63.0677 37.96 62.9184 37.3734 62.6198 37.0107C62.3424 36.648 61.8944 36.4667 61.2758 36.4667H59.6758V42.8667H60.9558Z" fill="#5F7A42"/>
<path d="M1.46304 6.6H10.775V9.8H4.98304V16.04H9.52704V19.24H4.98304V29H1.46304V6.6ZM12.463 6.6H15.983V25.8H21.775V29H12.463V6.6ZM28.426 29.32C26.698 29.32 25.3754 28.8293 24.458 27.848C23.5407 26.8667 23.082 25.48 23.082 23.688V11.912C23.082 10.12 23.5407 8.73333 24.458 7.752C25.3754 6.77067 26.698 6.28 28.426 6.28C30.154 6.28 31.4767 6.77067 32.394 7.752C33.3114 8.73333 33.77 10.12 33.77 11.912V23.688C33.77 25.48 33.3114 26.8667 32.394 27.848C31.4767 28.8293 30.154 29.32 28.426 29.32ZM28.426 26.12C29.642 26.12 30.25 25.384 30.25 23.912V11.688C30.25 10.216 29.642 9.48 28.426 9.48C27.21 9.48 26.602 10.216 26.602 11.688V23.912C26.602 25.384 27.21 26.12 28.426 26.12ZM35.3185 6.6H38.7105L40.2785 23.816H40.3425L42.0065 6.6H45.8465L47.5105 23.816H47.5745L49.1425 6.6H52.1825L49.9105 29H45.5265L43.9265 13.896H43.8625L42.2625 29H37.5905L35.3185 6.6ZM53.963 6.6H63.563V9.8H57.483V15.72H62.315V18.92H57.483V25.8H63.563V29H53.963V6.6ZM65.588 6.6H70.804C72.6174 6.6 73.94 7.02667 74.772 7.88C75.604 8.712 76.02 10.0027 76.02 11.752V13.128C76.02 15.4533 75.252 16.9253 73.716 17.544V17.608C74.5694 17.864 75.1667 18.3867 75.508 19.176C75.8707 19.9653 76.052 21.0213 76.052 22.344V26.28C76.052 26.92 76.0734 27.4427 76.116 27.848C76.1587 28.232 76.2654 28.616 76.436 29H72.852C72.724 28.6373 72.6387 28.296 72.596 27.976C72.5534 27.656 72.532 27.08 72.532 26.248V22.152C72.532 21.128 72.3614 20.4133 72.02 20.008C71.7 19.6027 71.1347 19.4 70.324 19.4H69.108V29H65.588V6.6ZM70.388 16.2C71.092 16.2 71.6147 16.0187 71.956 15.656C72.3187 15.2933 72.5 14.6853 72.5 13.832V12.104C72.5 11.2933 72.3507 10.7067 72.052 10.344C71.7747 9.98133 71.3267 9.8 70.708 9.8H69.108V16.2H70.388Z" fill="#5F7A42"/>
<path d="M78.8132 55.3334L76.85 47.3334H93.8166L91.8534 55.3334H78.8132Z" stroke="black" stroke-width="1.33333" stroke-linejoin="round"/>
<rect x="74" y="44.6667" width="22.6667" height="2.66667" stroke="black" stroke-width="1.33333"/>
<path d="M78.6667 44.6666C76.0394 39.3785 76.6376 29.8113 84.041 29.3554C92.4015 28.8406 92.8162 38.0565 90.6667 44.6666" stroke="black" stroke-width="1.33333"/>
<path d="M85.3334 29.3411C85.7163 26.1064 88.0881 20.0021 93.2784 20C94.8102 19.9994 96.3552 20.7691 96.9371 22.1859C98.0397 24.8703 97.0806 29.2979 90.99 33.3333" stroke="black" stroke-width="1.33333"/>
<path d="M88.6666 22C86.691 21.3119 84.1858 20.2344 83.9393 17.7707C83.6916 15.2952 86.182 12.3791 88.462 13.3748C89.6817 13.9075 90.781 15.6722 91.3333 20" stroke="black" stroke-width="1.33333"/>
<path d="M83.5675 16.6668H82.6666M85.6216 21.3334L84.2522 22.6668M97.9459 22.6666L100 21.9999M95.8918 29.3334L97.9458 31.3334M78.09 34L74.6666 32.6667M77.4054 41.3333L75.3513 42.6666M91.7837 36.6667L93.1531 36M91.7837 41.3333L93.8378 42M89.7297 9.99998L90.4144 9.33331" stroke="black" stroke-width="1.33333" stroke-linecap="round" stroke-linejoin="round"/>
<circle cx="87.3333" cy="19.3334" r="0.666665" fill="#5F7A42"/>
<circle cx="91.3333" cy="26" r="0.666665" fill="#5F7A42"/>
<circle cx="93.6667" cy="23" r="0.333333" fill="#5F7A42"/>
<circle cx="92.3333" cy="29.6666" r="0.333333" fill="#5F7A42"/>
<circle cx="89.6667" cy="19" r="0.333333" fill="#5F7A42"/>
<circle cx="88.3333" cy="15" r="0.333333" fill="#5F7A42"/>
<circle cx="85.6667" cy="17.6666" r="0.333333" fill="#5F7A42"/>
<circle cx="88.3333" cy="9.66665" r="0.333333" fill="#5F7A42"/>
<circle cx="87" cy="11" r="0.333333" fill="#5F7A42"/>
<circle cx="85.6667" cy="32.3333" r="0.333333" fill="#5F7A42"/>
<circle cx="84.3333" cy="39" r="0.333333" fill="#5F7A42"/>
<circle cx="80.3333" cy="35" r="0.333333" fill="#5F7A42"/>
<circle cx="88.3333" cy="41.6666" r="0.333333" fill="#5F7A42"/>
<circle cx="88.6667" cy="36.6667" r="0.666665" fill="#5F7A42"/>
<circle cx="80.6668" cy="40.6667" r="0.666665" fill="#5F7A42"/>
<path d="M85.596 13.3333C85.0539 11.3728 85.1623 7.56943 87.7643 8.03993C89.9327 8.43202 89.3906 11.5689 88.8485 13.3333" stroke="black" stroke-width="1.33333" stroke-linecap="round" stroke-linejoin="round"/>
</svg>
